<mxfile host="Electron" agent="Mozilla/5.0 (Windows NT 10.0; Win64; x64) AppleWebKit/537.36 (KHTML, like Gecko) draw.io/26.0.9 Chrome/128.0.6613.186 Electron/32.2.5 Safari/537.36" version="26.0.9">
  <diagram name="Страница — 1" id="0imckMmeNwwIt8wK5O93">
    <mxGraphModel dx="1434" dy="844" grid="1" gridSize="10" guides="1" tooltips="1" connect="1" arrows="1" fold="1" page="1" pageScale="1" pageWidth="827" pageHeight="1169" math="0" shadow="0">
      <root>
        <mxCell id="0" />
        <mxCell id="1" parent="0" />
        <mxCell id="CxSFhG7GU5tgEpMWFyKV-3" value="" style="edgeStyle=orthogonalEdgeStyle;rounded=0;orthogonalLoop=1;jettySize=auto;html=1;" parent="1" source="CxSFhG7GU5tgEpMWFyKV-1" target="CxSFhG7GU5tgEpMWFyKV-2" edge="1">
          <mxGeometry relative="1" as="geometry" />
        </mxCell>
        <mxCell id="CxSFhG7GU5tgEpMWFyKV-1" value="Начало" style="strokeWidth=2;html=1;shape=mxgraph.flowchart.terminator;whiteSpace=wrap;" parent="1" vertex="1">
          <mxGeometry x="350" y="30" width="140" height="30" as="geometry" />
        </mxCell>
        <mxCell id="CxSFhG7GU5tgEpMWFyKV-7" value="" style="edgeStyle=orthogonalEdgeStyle;rounded=0;orthogonalLoop=1;jettySize=auto;html=1;" parent="1" source="0YgWEwC-4FW2Siu-A5_O-1" target="CxSFhG7GU5tgEpMWFyKV-6" edge="1">
          <mxGeometry relative="1" as="geometry" />
        </mxCell>
        <mxCell id="0YgWEwC-4FW2Siu-A5_O-2" value="" style="edgeStyle=orthogonalEdgeStyle;rounded=0;orthogonalLoop=1;jettySize=auto;html=1;" parent="1" source="CxSFhG7GU5tgEpMWFyKV-2" target="0YgWEwC-4FW2Siu-A5_O-1" edge="1">
          <mxGeometry relative="1" as="geometry" />
        </mxCell>
        <mxCell id="CxSFhG7GU5tgEpMWFyKV-2" value="Открытие файла FILE1.txt" style="shape=parallelogram;perimeter=parallelogramPerimeter;whiteSpace=wrap;html=1;fixedSize=1;strokeWidth=2;" parent="1" vertex="1">
          <mxGeometry x="350" y="80" width="140" height="40" as="geometry" />
        </mxCell>
        <mxCell id="CxSFhG7GU5tgEpMWFyKV-9" value="" style="edgeStyle=orthogonalEdgeStyle;rounded=0;orthogonalLoop=1;jettySize=auto;html=1;" parent="1" source="CxSFhG7GU5tgEpMWFyKV-6" target="CxSFhG7GU5tgEpMWFyKV-8" edge="1">
          <mxGeometry relative="1" as="geometry" />
        </mxCell>
        <mxCell id="0YgWEwC-4FW2Siu-A5_O-11" value="" style="edgeStyle=orthogonalEdgeStyle;rounded=0;orthogonalLoop=1;jettySize=auto;html=1;" parent="1" source="CxSFhG7GU5tgEpMWFyKV-6" target="0YgWEwC-4FW2Siu-A5_O-10" edge="1">
          <mxGeometry relative="1" as="geometry" />
        </mxCell>
        <mxCell id="CxSFhG7GU5tgEpMWFyKV-6" value="Открытие файла FILE2.txt для записи" style="shape=parallelogram;perimeter=parallelogramPerimeter;whiteSpace=wrap;html=1;fixedSize=1;strokeWidth=2;" parent="1" vertex="1">
          <mxGeometry x="348.5" y="240" width="143" height="40" as="geometry" />
        </mxCell>
        <mxCell id="CxSFhG7GU5tgEpMWFyKV-11" value="" style="edgeStyle=orthogonalEdgeStyle;rounded=0;orthogonalLoop=1;jettySize=auto;html=1;" parent="1" source="CxSFhG7GU5tgEpMWFyKV-8" target="CxSFhG7GU5tgEpMWFyKV-10" edge="1">
          <mxGeometry relative="1" as="geometry" />
        </mxCell>
        <mxCell id="CxSFhG7GU5tgEpMWFyKV-8" value="Объявляем переменные line, lineNumber" style="whiteSpace=wrap;html=1;strokeWidth=2;" parent="1" vertex="1">
          <mxGeometry x="350" y="390" width="140" height="40" as="geometry" />
        </mxCell>
        <mxCell id="0YgWEwC-4FW2Siu-A5_O-20" value="" style="edgeStyle=orthogonalEdgeStyle;rounded=0;orthogonalLoop=1;jettySize=auto;html=1;" parent="1" source="CxSFhG7GU5tgEpMWFyKV-10" target="0YgWEwC-4FW2Siu-A5_O-19" edge="1">
          <mxGeometry relative="1" as="geometry" />
        </mxCell>
        <mxCell id="Px-QO0UzlQuQmoAkI43_-1" style="edgeStyle=orthogonalEdgeStyle;rounded=0;orthogonalLoop=1;jettySize=auto;html=1;exitX=1;exitY=0.5;exitDx=0;exitDy=0;entryX=0.5;entryY=0;entryDx=0;entryDy=0;" edge="1" parent="1" source="CxSFhG7GU5tgEpMWFyKV-10" target="vgKj6uI4PYFQyy0EW4Bj-39">
          <mxGeometry relative="1" as="geometry">
            <Array as="points">
              <mxPoint x="720" y="505" />
              <mxPoint x="720" y="2090" />
              <mxPoint x="421" y="2090" />
            </Array>
          </mxGeometry>
        </mxCell>
        <mxCell id="CxSFhG7GU5tgEpMWFyKV-10" value="Есть строка в файле?" style="rhombus;whiteSpace=wrap;html=1;strokeWidth=2;" parent="1" vertex="1">
          <mxGeometry x="337.5" y="480" width="165" height="50" as="geometry" />
        </mxCell>
        <mxCell id="0YgWEwC-4FW2Siu-A5_O-3" value="" style="edgeStyle=orthogonalEdgeStyle;rounded=0;orthogonalLoop=1;jettySize=auto;html=1;" parent="1" source="CxSFhG7GU5tgEpMWFyKV-2" target="0YgWEwC-4FW2Siu-A5_O-1" edge="1">
          <mxGeometry relative="1" as="geometry">
            <mxPoint x="420" y="120" as="sourcePoint" />
            <mxPoint x="420" y="240" as="targetPoint" />
          </mxGeometry>
        </mxCell>
        <mxCell id="0YgWEwC-4FW2Siu-A5_O-7" value="" style="edgeStyle=orthogonalEdgeStyle;rounded=0;orthogonalLoop=1;jettySize=auto;html=1;" parent="1" source="0YgWEwC-4FW2Siu-A5_O-1" target="0YgWEwC-4FW2Siu-A5_O-6" edge="1">
          <mxGeometry relative="1" as="geometry" />
        </mxCell>
        <mxCell id="0YgWEwC-4FW2Siu-A5_O-1" value="Файл открыт?" style="rhombus;whiteSpace=wrap;html=1;strokeWidth=2;" parent="1" vertex="1">
          <mxGeometry x="330" y="150" width="180" height="40" as="geometry" />
        </mxCell>
        <mxCell id="0YgWEwC-4FW2Siu-A5_O-4" value="да" style="text;html=1;align=center;verticalAlign=middle;whiteSpace=wrap;rounded=0;" parent="1" vertex="1">
          <mxGeometry x="354" y="200" width="60" height="30" as="geometry" />
        </mxCell>
        <mxCell id="0YgWEwC-4FW2Siu-A5_O-5" value="нет" style="text;html=1;align=center;verticalAlign=middle;whiteSpace=wrap;rounded=0;" parent="1" vertex="1">
          <mxGeometry x="540" y="140" width="60" height="30" as="geometry" />
        </mxCell>
        <mxCell id="0YgWEwC-4FW2Siu-A5_O-6" value="Вывести &quot;ERROR!&quot;" style="shape=parallelogram;perimeter=parallelogramPerimeter;whiteSpace=wrap;html=1;fixedSize=1;strokeWidth=2;" parent="1" vertex="1">
          <mxGeometry x="610" y="360" width="150" height="30" as="geometry" />
        </mxCell>
        <mxCell id="0YgWEwC-4FW2Siu-A5_O-8" value="Конец" style="strokeWidth=2;html=1;shape=mxgraph.flowchart.terminator;whiteSpace=wrap;" parent="1" vertex="1">
          <mxGeometry x="355.75" y="2270" width="130" height="30" as="geometry" />
        </mxCell>
        <mxCell id="0YgWEwC-4FW2Siu-A5_O-9" style="edgeStyle=orthogonalEdgeStyle;rounded=0;orthogonalLoop=1;jettySize=auto;html=1;entryX=0.5;entryY=0;entryDx=0;entryDy=0;entryPerimeter=0;" parent="1" source="0YgWEwC-4FW2Siu-A5_O-6" target="0YgWEwC-4FW2Siu-A5_O-8" edge="1">
          <mxGeometry relative="1" as="geometry">
            <Array as="points">
              <mxPoint x="685" y="2230" />
              <mxPoint x="421" y="2230" />
            </Array>
          </mxGeometry>
        </mxCell>
        <mxCell id="0YgWEwC-4FW2Siu-A5_O-18" style="edgeStyle=orthogonalEdgeStyle;rounded=0;orthogonalLoop=1;jettySize=auto;html=1;exitX=1;exitY=0.5;exitDx=0;exitDy=0;" parent="1" source="0YgWEwC-4FW2Siu-A5_O-10" target="0YgWEwC-4FW2Siu-A5_O-6" edge="1">
          <mxGeometry relative="1" as="geometry" />
        </mxCell>
        <mxCell id="0YgWEwC-4FW2Siu-A5_O-10" value="Файл открыт?" style="rhombus;whiteSpace=wrap;html=1;strokeWidth=2;" parent="1" vertex="1">
          <mxGeometry x="330" y="300" width="180" height="50" as="geometry" />
        </mxCell>
        <mxCell id="0YgWEwC-4FW2Siu-A5_O-12" value="Да" style="text;html=1;align=center;verticalAlign=middle;whiteSpace=wrap;rounded=0;" parent="1" vertex="1">
          <mxGeometry x="380" y="350" width="60" height="30" as="geometry" />
        </mxCell>
        <mxCell id="0YgWEwC-4FW2Siu-A5_O-13" value="Нет" style="text;html=1;align=center;verticalAlign=middle;whiteSpace=wrap;rounded=0;" parent="1" vertex="1">
          <mxGeometry x="520" y="290" width="60" height="30" as="geometry" />
        </mxCell>
        <mxCell id="vgKj6uI4PYFQyy0EW4Bj-2" value="" style="edgeStyle=orthogonalEdgeStyle;rounded=0;orthogonalLoop=1;jettySize=auto;html=1;" parent="1" source="0YgWEwC-4FW2Siu-A5_O-19" target="vgKj6uI4PYFQyy0EW4Bj-1" edge="1">
          <mxGeometry relative="1" as="geometry" />
        </mxCell>
        <mxCell id="0YgWEwC-4FW2Siu-A5_O-19" value="lineNumber+1" style="whiteSpace=wrap;html=1;strokeWidth=2;" parent="1" vertex="1">
          <mxGeometry x="350" y="570" width="140" height="30" as="geometry" />
        </mxCell>
        <mxCell id="0YgWEwC-4FW2Siu-A5_O-21" value="Да" style="text;html=1;align=center;verticalAlign=middle;whiteSpace=wrap;rounded=0;" parent="1" vertex="1">
          <mxGeometry x="380" y="530" width="60" height="30" as="geometry" />
        </mxCell>
        <mxCell id="0YgWEwC-4FW2Siu-A5_O-25" style="edgeStyle=orthogonalEdgeStyle;rounded=0;orthogonalLoop=1;jettySize=auto;html=1;exitX=0.5;exitY=1;exitDx=0;exitDy=0;entryX=0.5;entryY=0;entryDx=0;entryDy=0;" parent="1" source="0YgWEwC-4FW2Siu-A5_O-22" target="0YgWEwC-4FW2Siu-A5_O-24" edge="1">
          <mxGeometry relative="1" as="geometry" />
        </mxCell>
        <mxCell id="vgKj6uI4PYFQyy0EW4Bj-38" style="edgeStyle=orthogonalEdgeStyle;rounded=0;orthogonalLoop=1;jettySize=auto;html=1;exitX=1;exitY=0.5;exitDx=0;exitDy=0;entryX=0.5;entryY=0;entryDx=0;entryDy=0;" parent="1" source="0YgWEwC-4FW2Siu-A5_O-22" target="CxSFhG7GU5tgEpMWFyKV-10" edge="1">
          <mxGeometry relative="1" as="geometry">
            <Array as="points">
              <mxPoint x="650" y="1908" />
              <mxPoint x="650" y="450" />
              <mxPoint x="420" y="450" />
            </Array>
          </mxGeometry>
        </mxCell>
        <mxCell id="0YgWEwC-4FW2Siu-A5_O-22" value="Eсть повторяющиеся слово?" style="rhombus;whiteSpace=wrap;html=1;strokeWidth=2;" parent="1" vertex="1">
          <mxGeometry x="311.62" y="1880" width="218.25" height="55.5" as="geometry" />
        </mxCell>
        <mxCell id="vgKj6uI4PYFQyy0EW4Bj-62" value="" style="edgeStyle=orthogonalEdgeStyle;rounded=0;orthogonalLoop=1;jettySize=auto;html=1;" parent="1" source="0YgWEwC-4FW2Siu-A5_O-24" target="vgKj6uI4PYFQyy0EW4Bj-61" edge="1">
          <mxGeometry relative="1" as="geometry" />
        </mxCell>
        <mxCell id="0YgWEwC-4FW2Siu-A5_O-24" value="Записать строку в FILE2.txt" style="shape=parallelogram;perimeter=parallelogramPerimeter;whiteSpace=wrap;html=1;fixedSize=1;strokeWidth=2;" parent="1" vertex="1">
          <mxGeometry x="345.75" y="1965.5" width="148.5" height="30" as="geometry" />
        </mxCell>
        <mxCell id="0YgWEwC-4FW2Siu-A5_O-26" value="Да" style="text;html=1;align=center;verticalAlign=middle;whiteSpace=wrap;rounded=0;" parent="1" vertex="1">
          <mxGeometry x="370" y="1935.5" width="60" height="30" as="geometry" />
        </mxCell>
        <mxCell id="0YgWEwC-4FW2Siu-A5_O-34" value="Нет" style="text;html=1;align=center;verticalAlign=middle;whiteSpace=wrap;rounded=0;" parent="1" vertex="1">
          <mxGeometry x="550" y="1880" width="60" height="30" as="geometry" />
        </mxCell>
        <mxCell id="vgKj6uI4PYFQyy0EW4Bj-8" value="" style="edgeStyle=orthogonalEdgeStyle;rounded=0;orthogonalLoop=1;jettySize=auto;html=1;" parent="1" source="vgKj6uI4PYFQyy0EW4Bj-1" target="vgKj6uI4PYFQyy0EW4Bj-7" edge="1">
          <mxGeometry relative="1" as="geometry" />
        </mxCell>
        <mxCell id="vgKj6uI4PYFQyy0EW4Bj-1" value="Создать словарь wordCount" style="whiteSpace=wrap;html=1;strokeWidth=2;" parent="1" vertex="1">
          <mxGeometry x="350.74" y="620" width="140" height="35.5" as="geometry" />
        </mxCell>
        <mxCell id="vgKj6uI4PYFQyy0EW4Bj-10" value="" style="edgeStyle=orthogonalEdgeStyle;rounded=0;orthogonalLoop=1;jettySize=auto;html=1;" parent="1" source="vgKj6uI4PYFQyy0EW4Bj-7" target="vgKj6uI4PYFQyy0EW4Bj-9" edge="1">
          <mxGeometry relative="1" as="geometry" />
        </mxCell>
        <mxCell id="vgKj6uI4PYFQyy0EW4Bj-7" value="Создать поток &lt;span class=&quot;hljs-built_in&quot;&gt;ss&lt;/span&gt;(line)" style="whiteSpace=wrap;html=1;strokeWidth=2;" parent="1" vertex="1">
          <mxGeometry x="350" y="680" width="140" height="30" as="geometry" />
        </mxCell>
        <mxCell id="vgKj6uI4PYFQyy0EW4Bj-46" value="" style="edgeStyle=orthogonalEdgeStyle;rounded=0;orthogonalLoop=1;jettySize=auto;html=1;" parent="1" source="vgKj6uI4PYFQyy0EW4Bj-9" target="vgKj6uI4PYFQyy0EW4Bj-45" edge="1">
          <mxGeometry relative="1" as="geometry" />
        </mxCell>
        <mxCell id="vgKj6uI4PYFQyy0EW4Bj-9" value="Создать переменную &lt;span class=&quot;hljs-type&quot;&gt;word&lt;/span&gt;" style="whiteSpace=wrap;html=1;strokeWidth=2;" parent="1" vertex="1">
          <mxGeometry x="350" y="740" width="140" height="35" as="geometry" />
        </mxCell>
        <mxCell id="vgKj6uI4PYFQyy0EW4Bj-14" value="" style="edgeStyle=orthogonalEdgeStyle;rounded=0;orthogonalLoop=1;jettySize=auto;html=1;" parent="1" source="vgKj6uI4PYFQyy0EW4Bj-11" target="vgKj6uI4PYFQyy0EW4Bj-13" edge="1">
          <mxGeometry relative="1" as="geometry" />
        </mxCell>
        <mxCell id="vgKj6uI4PYFQyy0EW4Bj-24" style="edgeStyle=orthogonalEdgeStyle;rounded=0;orthogonalLoop=1;jettySize=auto;html=1;exitX=1;exitY=0.5;exitDx=0;exitDy=0;" parent="1" source="vgKj6uI4PYFQyy0EW4Bj-11" target="vgKj6uI4PYFQyy0EW4Bj-23" edge="1">
          <mxGeometry relative="1" as="geometry">
            <Array as="points">
              <mxPoint x="630" y="1000" />
              <mxPoint x="630" y="1510" />
              <mxPoint x="422" y="1510" />
            </Array>
          </mxGeometry>
        </mxCell>
        <mxCell id="vgKj6uI4PYFQyy0EW4Bj-11" value="Пока в&amp;nbsp;&lt;code data-end=&quot;83&quot; data-start=&quot;79&quot;&gt;ss&lt;/code&gt; есть слова, считывать их по одному в переменную &lt;code data-end=&quot;138&quot; data-start=&quot;132&quot;&gt;word&lt;/code&gt;" style="rhombus;whiteSpace=wrap;html=1;strokeWidth=2;" parent="1" vertex="1">
          <mxGeometry x="255.02" y="950" width="327.86" height="100" as="geometry" />
        </mxCell>
        <mxCell id="vgKj6uI4PYFQyy0EW4Bj-49" value="" style="edgeStyle=orthogonalEdgeStyle;rounded=0;orthogonalLoop=1;jettySize=auto;html=1;" parent="1" source="vgKj6uI4PYFQyy0EW4Bj-13" target="vgKj6uI4PYFQyy0EW4Bj-48" edge="1">
          <mxGeometry relative="1" as="geometry" />
        </mxCell>
        <mxCell id="vgKj6uI4PYFQyy0EW4Bj-13" value="wordCount + 1" style="whiteSpace=wrap;html=1;strokeWidth=2;" parent="1" vertex="1">
          <mxGeometry x="348.95" y="1090" width="140" height="30" as="geometry" />
        </mxCell>
        <mxCell id="vgKj6uI4PYFQyy0EW4Bj-15" value="Да" style="text;html=1;align=center;verticalAlign=middle;whiteSpace=wrap;rounded=0;" parent="1" vertex="1">
          <mxGeometry x="361.51" y="1050" width="60" height="30" as="geometry" />
        </mxCell>
        <mxCell id="vgKj6uI4PYFQyy0EW4Bj-19" value="Нет" style="text;html=1;align=center;verticalAlign=middle;whiteSpace=wrap;rounded=0;" parent="1" vertex="1">
          <mxGeometry x="579.9999999999999" y="960" width="60" height="30" as="geometry" />
        </mxCell>
        <mxCell id="vgKj6uI4PYFQyy0EW4Bj-27" value="" style="edgeStyle=orthogonalEdgeStyle;rounded=0;orthogonalLoop=1;jettySize=auto;html=1;" parent="1" source="vgKj6uI4PYFQyy0EW4Bj-23" target="vgKj6uI4PYFQyy0EW4Bj-26" edge="1">
          <mxGeometry relative="1" as="geometry" />
        </mxCell>
        <mxCell id="vgKj6uI4PYFQyy0EW4Bj-23" value="Создать логическую переменную &lt;code data-end=&quot;110&quot; data-start=&quot;91&quot;&gt;hasRepeatingWords&lt;/code&gt; и установить её в &lt;code data-end=&quot;136&quot; data-start=&quot;129&quot;&gt;false&lt;/code&gt;" style="whiteSpace=wrap;html=1;strokeWidth=2;" parent="1" vertex="1">
          <mxGeometry x="350" y="1530" width="141.5" height="70" as="geometry" />
        </mxCell>
        <mxCell id="vgKj6uI4PYFQyy0EW4Bj-29" value="" style="edgeStyle=orthogonalEdgeStyle;rounded=0;orthogonalLoop=1;jettySize=auto;html=1;" parent="1" source="vgKj6uI4PYFQyy0EW4Bj-26" target="vgKj6uI4PYFQyy0EW4Bj-28" edge="1">
          <mxGeometry relative="1" as="geometry" />
        </mxCell>
        <mxCell id="vgKj6uI4PYFQyy0EW4Bj-26" value="Перебираем элементы (&lt;code data-end=&quot;560&quot; data-start=&quot;554&quot;&gt;pair&lt;/code&gt; в &lt;code data-end=&quot;574&quot; data-start=&quot;563&quot;&gt;wordCount&lt;/code&gt;)" style="whiteSpace=wrap;html=1;strokeWidth=2;" parent="1" vertex="1">
          <mxGeometry x="350.74" y="1630" width="140" height="50" as="geometry" />
        </mxCell>
        <mxCell id="vgKj6uI4PYFQyy0EW4Bj-31" value="" style="edgeStyle=orthogonalEdgeStyle;rounded=0;orthogonalLoop=1;jettySize=auto;html=1;" parent="1" source="vgKj6uI4PYFQyy0EW4Bj-28" target="vgKj6uI4PYFQyy0EW4Bj-30" edge="1">
          <mxGeometry relative="1" as="geometry" />
        </mxCell>
        <mxCell id="vgKj6uI4PYFQyy0EW4Bj-60" style="edgeStyle=orthogonalEdgeStyle;rounded=0;orthogonalLoop=1;jettySize=auto;html=1;exitX=1;exitY=0.5;exitDx=0;exitDy=0;entryX=0.5;entryY=0;entryDx=0;entryDy=0;" parent="1" source="vgKj6uI4PYFQyy0EW4Bj-28" target="vgKj6uI4PYFQyy0EW4Bj-26" edge="1">
          <mxGeometry relative="1" as="geometry">
            <Array as="points">
              <mxPoint x="620" y="1735" />
              <mxPoint x="620" y="1610" />
              <mxPoint x="421" y="1610" />
            </Array>
          </mxGeometry>
        </mxCell>
        <mxCell id="vgKj6uI4PYFQyy0EW4Bj-28" value="Слово встеритилось не меньшк двух раз?" style="rhombus;whiteSpace=wrap;html=1;strokeWidth=2;" parent="1" vertex="1">
          <mxGeometry x="263.63" y="1710" width="314.24" height="50" as="geometry" />
        </mxCell>
        <mxCell id="vgKj6uI4PYFQyy0EW4Bj-37" value="" style="edgeStyle=orthogonalEdgeStyle;rounded=0;orthogonalLoop=1;jettySize=auto;html=1;" parent="1" source="vgKj6uI4PYFQyy0EW4Bj-30" target="0YgWEwC-4FW2Siu-A5_O-22" edge="1">
          <mxGeometry relative="1" as="geometry" />
        </mxCell>
        <mxCell id="vgKj6uI4PYFQyy0EW4Bj-30" value="Установить переменную &lt;code data-end=&quot;89&quot; data-start=&quot;70&quot;&gt;hasRepeatingWords&lt;/code&gt; в &lt;code data-end=&quot;98&quot; data-start=&quot;92&quot;&gt;true&lt;/code&gt;" style="whiteSpace=wrap;html=1;strokeWidth=2;" parent="1" vertex="1">
          <mxGeometry x="350" y="1800" width="140" height="50" as="geometry" />
        </mxCell>
        <mxCell id="vgKj6uI4PYFQyy0EW4Bj-32" value="Да" style="text;html=1;align=center;verticalAlign=middle;whiteSpace=wrap;rounded=0;" parent="1" vertex="1">
          <mxGeometry x="370" y="1760" width="60" height="30" as="geometry" />
        </mxCell>
        <mxCell id="vgKj6uI4PYFQyy0EW4Bj-34" value="Нет" style="text;html=1;align=center;verticalAlign=middle;whiteSpace=wrap;rounded=0;" parent="1" vertex="1">
          <mxGeometry x="570" y="1690" width="60" height="30" as="geometry" />
        </mxCell>
        <mxCell id="vgKj6uI4PYFQyy0EW4Bj-42" value="" style="edgeStyle=orthogonalEdgeStyle;rounded=0;orthogonalLoop=1;jettySize=auto;html=1;" parent="1" source="vgKj6uI4PYFQyy0EW4Bj-39" target="vgKj6uI4PYFQyy0EW4Bj-41" edge="1">
          <mxGeometry relative="1" as="geometry" />
        </mxCell>
        <mxCell id="vgKj6uI4PYFQyy0EW4Bj-39" value="Закрыть файлы &lt;code data-end=&quot;98&quot; data-start=&quot;92&quot;&gt;file&lt;/code&gt; и &lt;code data-end=&quot;113&quot; data-start=&quot;101&quot;&gt;outputFile&lt;/code&gt;" style="whiteSpace=wrap;html=1;strokeWidth=2;" parent="1" vertex="1">
          <mxGeometry x="320.75" y="2110" width="200" height="35" as="geometry" />
        </mxCell>
        <mxCell id="vgKj6uI4PYFQyy0EW4Bj-43" value="" style="edgeStyle=orthogonalEdgeStyle;rounded=0;orthogonalLoop=1;jettySize=auto;html=1;" parent="1" source="vgKj6uI4PYFQyy0EW4Bj-41" target="0YgWEwC-4FW2Siu-A5_O-8" edge="1">
          <mxGeometry relative="1" as="geometry" />
        </mxCell>
        <mxCell id="vgKj6uI4PYFQyy0EW4Bj-41" value="Вывести &quot;Completed&quot;" style="shape=parallelogram;perimeter=parallelogramPerimeter;whiteSpace=wrap;html=1;fixedSize=1;strokeWidth=2;" parent="1" vertex="1">
          <mxGeometry x="320" y="2180" width="200" height="30" as="geometry" />
        </mxCell>
        <mxCell id="vgKj6uI4PYFQyy0EW4Bj-47" style="edgeStyle=orthogonalEdgeStyle;rounded=0;orthogonalLoop=1;jettySize=auto;html=1;exitX=0.5;exitY=1;exitDx=0;exitDy=0;entryX=0.5;entryY=0;entryDx=0;entryDy=0;" parent="1" source="vgKj6uI4PYFQyy0EW4Bj-45" target="vgKj6uI4PYFQyy0EW4Bj-11" edge="1">
          <mxGeometry relative="1" as="geometry">
            <Array as="points">
              <mxPoint x="420" y="880" />
              <mxPoint x="420" y="950" />
            </Array>
          </mxGeometry>
        </mxCell>
        <mxCell id="vgKj6uI4PYFQyy0EW4Bj-45" value="Создать и инициализировать нулем переменные&amp;nbsp;maxLen, position, index" style="whiteSpace=wrap;html=1;strokeWidth=2;" parent="1" vertex="1">
          <mxGeometry x="348.5" y="800" width="140" height="80" as="geometry" />
        </mxCell>
        <mxCell id="vgKj6uI4PYFQyy0EW4Bj-53" value="" style="edgeStyle=orthogonalEdgeStyle;rounded=0;orthogonalLoop=1;jettySize=auto;html=1;" parent="1" source="vgKj6uI4PYFQyy0EW4Bj-48" target="vgKj6uI4PYFQyy0EW4Bj-52" edge="1">
          <mxGeometry relative="1" as="geometry" />
        </mxCell>
        <mxCell id="vgKj6uI4PYFQyy0EW4Bj-48" value="index + 1" style="whiteSpace=wrap;html=1;strokeWidth=2;" parent="1" vertex="1">
          <mxGeometry x="348.5" y="1150" width="140" height="31" as="geometry" />
        </mxCell>
        <mxCell id="vgKj6uI4PYFQyy0EW4Bj-55" value="" style="edgeStyle=orthogonalEdgeStyle;rounded=0;orthogonalLoop=1;jettySize=auto;html=1;" parent="1" source="vgKj6uI4PYFQyy0EW4Bj-52" target="vgKj6uI4PYFQyy0EW4Bj-54" edge="1">
          <mxGeometry relative="1" as="geometry" />
        </mxCell>
        <mxCell id="vgKj6uI4PYFQyy0EW4Bj-52" value="Длина слова больше максимальной длины?" style="rhombus;whiteSpace=wrap;html=1;strokeWidth=2;" parent="1" vertex="1">
          <mxGeometry x="323.5" y="1210" width="190" height="80" as="geometry" />
        </mxCell>
        <mxCell id="vgKj6uI4PYFQyy0EW4Bj-58" value="" style="edgeStyle=orthogonalEdgeStyle;rounded=0;orthogonalLoop=1;jettySize=auto;html=1;" parent="1" source="vgKj6uI4PYFQyy0EW4Bj-54" target="vgKj6uI4PYFQyy0EW4Bj-57" edge="1">
          <mxGeometry relative="1" as="geometry" />
        </mxCell>
        <mxCell id="vgKj6uI4PYFQyy0EW4Bj-54" value="Максимальная длина равна длине слова&amp;nbsp;maxLen = word.length()" style="whiteSpace=wrap;html=1;strokeWidth=2;" parent="1" vertex="1">
          <mxGeometry x="348.5" y="1330" width="140" height="60" as="geometry" />
        </mxCell>
        <mxCell id="vgKj6uI4PYFQyy0EW4Bj-56" value="Да" style="text;html=1;align=center;verticalAlign=middle;whiteSpace=wrap;rounded=0;" parent="1" vertex="1">
          <mxGeometry x="370" y="1300" width="60" height="30" as="geometry" />
        </mxCell>
        <mxCell id="vgKj6uI4PYFQyy0EW4Bj-59" style="edgeStyle=orthogonalEdgeStyle;rounded=0;orthogonalLoop=1;jettySize=auto;html=1;exitX=0.5;exitY=1;exitDx=0;exitDy=0;entryX=0.5;entryY=0;entryDx=0;entryDy=0;" parent="1" source="vgKj6uI4PYFQyy0EW4Bj-57" target="vgKj6uI4PYFQyy0EW4Bj-11" edge="1">
          <mxGeometry relative="1" as="geometry">
            <Array as="points">
              <mxPoint x="420" y="1480" />
              <mxPoint x="420" y="1500" />
              <mxPoint x="220" y="1500" />
              <mxPoint x="220" y="930" />
              <mxPoint x="419" y="930" />
            </Array>
          </mxGeometry>
        </mxCell>
        <mxCell id="vgKj6uI4PYFQyy0EW4Bj-57" value="Записываем в position номер слова с максимальной длинной index" style="whiteSpace=wrap;html=1;strokeWidth=2;" parent="1" vertex="1">
          <mxGeometry x="348.5" y="1420" width="140" height="60" as="geometry" />
        </mxCell>
        <mxCell id="vgKj6uI4PYFQyy0EW4Bj-63" style="edgeStyle=orthogonalEdgeStyle;rounded=0;orthogonalLoop=1;jettySize=auto;html=1;exitX=0.5;exitY=1;exitDx=0;exitDy=0;" parent="1" source="vgKj6uI4PYFQyy0EW4Bj-61" target="vgKj6uI4PYFQyy0EW4Bj-39" edge="1">
          <mxGeometry relative="1" as="geometry" />
        </mxCell>
        <mxCell id="vgKj6uI4PYFQyy0EW4Bj-61" value="Записать в файл &quot;Longest word position:&quot;&amp;nbsp;position - номер слова с большим количеством букв" style="shape=parallelogram;perimeter=parallelogramPerimeter;whiteSpace=wrap;html=1;fixedSize=1;strokeWidth=2;" parent="1" vertex="1">
          <mxGeometry x="317.88" y="2020" width="204.25" height="60" as="geometry" />
        </mxCell>
        <mxCell id="Px-QO0UzlQuQmoAkI43_-2" value="Нет" style="text;html=1;align=center;verticalAlign=middle;whiteSpace=wrap;rounded=0;" vertex="1" parent="1">
          <mxGeometry x="517.87" y="480" width="60" height="30" as="geometry" />
        </mxCell>
      </root>
    </mxGraphModel>
  </diagram>
</mxfile>
